<svg width="1500" height="1500" viewBox="0 0 1500 1500" fill="none" xmlns="http://www.w3.org/2000/svg">
<g clip-path="url(#clip0_45_85)">
<rect width="1500" height="1500" fill=""/>
<path d="M1045.4 619.56L968.529 585.599C906.434 560.025 842.873 538.166 778.181 520.139C716.884 503.263 654.733 489.652 591.993 479.365C531.728 468.91 498.103 465.762 485.764 464.701C445.113 461.365 404.305 460.329 363.537 461.597C278.363 464.071 251.928 474.268 240.787 479.071C220.871 486.44 202.633 497.723 187.149 512.255C171.666 526.787 159.25 544.273 150.635 563.682C132.073 601.003 124.279 642.758 128.128 684.262C132.331 734.725 149.536 860.252 242.231 916.95C276.256 937.757 310.569 943.265 411.747 948.677C557.239 956.51 667.669 954.927 690.561 954.66C786.671 953.511 1146.72 955.077 1284.33 937.333C1338.81 930.29 1358.83 913.399 1366.43 897.089C1370.32 887.877 1371.78 877.819 1370.66 867.881C1368.33 834.168 1343.65 810.408 1329.72 797.59C1291.65 762.152 1250.09 730.677 1205.66 703.65C1163.24 679.439 1109.44 650.302 1045.4 619.56Z" fill="#272726" stroke="white" stroke-width="8" stroke-miterlimit="10"/>
<path d="M1067.02 963.401C1066.65 962.688 1065.83 962.208 1064.57 961.963C1063.85 961.816 1063.19 961.613 1062.59 961.352C1061.98 961.081 1061.62 960.863 1061.48 960.7C1061.35 960.536 1061.28 960.369 1061.29 960.199C1061.31 959.42 1061.51 958.726 1061.9 958.117C1062.29 957.498 1063.05 957.032 1064.19 956.719C1065.33 956.396 1066.56 956.251 1067.88 956.285C1068.44 956.299 1068.87 956.353 1069.19 956.446C1069.52 956.529 1069.74 956.62 1069.84 956.719C1069.96 956.807 1070.01 956.936 1070.01 957.107C1070 957.427 1069.94 957.698 1069.84 957.919C1069.75 958.13 1069.64 958.271 1069.51 958.343C1069.39 958.414 1069.16 958.51 1068.82 958.629C1068.49 958.728 1068.25 958.812 1068.09 958.883C1067.94 958.954 1067.68 959.097 1067.33 959.312C1067.18 959.404 1067.07 959.46 1067 959.479C1066.95 959.478 1066.92 959.456 1066.92 959.413C1066.93 959.318 1067.02 959.192 1067.19 959.036C1067.36 958.87 1067.6 958.71 1067.91 958.558C1068.2 958.416 1068.34 958.319 1068.35 958.265C1068.35 958.212 1068.15 958.18 1067.76 958.17C1066.34 958.134 1065.11 958.29 1064.08 958.637C1063.05 958.984 1062.52 959.382 1062.51 959.83C1062.51 959.915 1062.53 960.001 1062.59 960.088C1062.65 960.164 1062.72 960.214 1062.79 960.237L1064.57 960.81C1065.16 960.996 1065.69 961.207 1066.17 961.443C1066.64 961.679 1067.02 961.913 1067.29 962.144C1067.56 962.375 1067.75 962.603 1067.86 962.83C1067.97 963.047 1068.03 963.277 1068.02 963.523C1068.01 963.981 1067.81 964.462 1067.42 964.964C1067.05 965.467 1066.31 965.843 1065.22 966.092C1064.13 966.353 1063.02 966.469 1061.88 966.44C1060.94 966.416 1060.21 966.307 1059.68 966.112C1059.16 965.917 1058.91 965.655 1058.92 965.324C1058.92 965.004 1059.08 964.672 1059.39 964.328C1059.71 963.984 1060.07 963.817 1060.47 963.827C1060.74 963.834 1060.87 963.864 1060.87 963.917C1060.87 963.939 1060.81 963.969 1060.68 964.008C1060.49 964.078 1060.38 964.129 1060.32 964.159C1060.27 964.179 1060.24 964.216 1060.24 964.269C1060.24 964.376 1060.7 964.441 1061.63 964.465C1062.83 964.495 1063.72 964.48 1064.3 964.42C1064.88 964.36 1065.38 964.245 1065.81 964.075C1066.26 963.905 1066.66 963.68 1067.02 963.401ZM1072.86 959.836C1072.7 959.832 1072.57 959.781 1072.48 959.683C1072.39 959.574 1072.34 959.444 1072.34 959.295C1072.35 959.06 1072.47 958.813 1072.7 958.552C1072.93 958.28 1073.16 958.147 1073.38 958.153C1073.54 958.157 1073.67 958.214 1073.76 958.323C1073.87 958.421 1073.92 958.551 1073.91 958.711C1073.91 958.945 1073.79 959.193 1073.57 959.454C1073.36 959.716 1073.13 959.843 1072.86 959.836ZM1073.31 963.353L1073.3 963.929C1072.25 965.215 1071.38 965.849 1070.67 965.831C1070.28 965.821 1069.98 965.589 1069.78 965.136C1069.59 964.683 1069.5 964.232 1069.51 963.785C1069.53 963.059 1069.85 962.31 1070.46 961.536C1071.09 960.762 1071.66 960.382 1072.16 960.395C1072.48 960.403 1072.63 960.529 1072.63 960.775C1072.63 960.86 1072.54 961.071 1072.37 961.408C1072.2 961.746 1071.87 962.148 1071.38 962.616C1071.02 962.959 1070.8 963.188 1070.72 963.303C1070.64 963.419 1070.6 963.562 1070.6 963.732C1070.59 963.924 1070.66 964.091 1070.79 964.233C1070.93 964.365 1071.11 964.433 1071.33 964.439C1071.58 964.445 1071.85 964.362 1072.16 964.188C1072.47 964.004 1072.86 963.725 1073.31 963.353ZM1077 962.326C1076.31 962.671 1075.45 963.498 1074.42 964.806C1074.11 965.171 1073.92 965.39 1073.83 965.463C1073.75 965.535 1073.67 965.571 1073.57 965.568C1073.38 965.563 1073.22 965.383 1073.1 965.028C1072.98 964.673 1072.93 964.277 1072.94 963.84C1072.95 963.552 1072.99 963.318 1073.06 963.138C1073.14 962.948 1073.34 962.623 1073.67 962.162C1074 961.701 1074.28 961.377 1074.5 961.19C1074.73 960.993 1074.97 960.898 1075.24 960.905C1075.39 960.909 1075.51 960.949 1075.59 961.026C1075.68 961.092 1075.73 961.174 1075.73 961.27C1075.73 961.366 1075.68 961.46 1075.59 961.554L1075.31 961.851C1074.47 962.747 1074.04 963.329 1074.04 963.595C1074.03 963.745 1074.08 963.821 1074.17 963.823C1074.25 963.825 1074.37 963.727 1074.55 963.528C1075.6 962.349 1076.45 961.549 1077.08 961.128C1077.72 960.707 1078.14 960.499 1078.34 960.504C1078.43 960.506 1078.5 960.636 1078.57 960.894C1078.65 961.152 1078.69 961.371 1078.68 961.553C1078.68 961.659 1078.56 961.832 1078.33 962.072C1077.89 962.52 1077.55 962.932 1077.29 963.31C1077.04 963.688 1076.91 963.972 1076.9 964.164C1076.9 964.388 1076.99 964.503 1077.17 964.507C1077.42 964.514 1078.01 964.166 1078.92 963.463L1078.91 964.007C1078.29 964.61 1077.75 965.098 1077.29 965.47C1076.82 965.832 1076.44 966.009 1076.15 966.002C1075.95 965.997 1075.8 965.913 1075.69 965.75C1075.6 965.588 1075.56 965.384 1075.57 965.139C1075.57 964.893 1075.68 964.571 1075.88 964.17C1076.09 963.76 1076.46 963.145 1077 962.326ZM1083.72 963.633L1083.71 964.161C1083.28 964.577 1082.75 965.044 1082.1 965.561C1081.46 966.067 1080.91 966.315 1080.44 966.303C1079.97 966.291 1079.59 966.025 1079.31 965.506C1079.03 964.987 1078.9 964.439 1078.91 963.863C1078.92 963.543 1078.98 963.273 1079.1 963.052C1079.21 962.83 1079.52 962.465 1080.04 961.955C1080.56 961.446 1081.08 961.043 1081.59 960.746C1082.1 960.45 1082.47 960.304 1082.7 960.31C1082.89 960.315 1083.05 960.378 1083.16 960.498C1083.29 960.619 1083.35 960.775 1083.34 960.967C1083.33 961.297 1083.15 961.693 1082.78 962.153C1082.43 962.614 1082.16 962.841 1081.97 962.836C1081.83 962.833 1081.76 962.757 1081.76 962.607L1081.78 962.432C1081.79 962.325 1081.76 962.271 1081.71 962.27C1081.66 962.268 1081.41 962.422 1080.96 962.731C1080.52 963.029 1080.22 963.267 1080.06 963.444C1079.91 963.622 1079.83 963.801 1079.82 963.982C1079.82 964.292 1079.9 964.545 1080.08 964.741C1080.26 964.927 1080.52 965.024 1080.84 965.033C1081.19 965.041 1081.6 964.929 1082.06 964.696C1082.53 964.462 1083.08 964.108 1083.72 963.633ZM1084.69 963.93L1084.69 964.122C1084.68 964.431 1084.74 964.673 1084.88 964.847C1085.02 965.021 1085.22 965.112 1085.48 965.118C1085.87 965.128 1086.27 965.016 1086.67 964.78C1087.08 964.535 1087.57 964.184 1088.12 963.729L1088.11 964.209C1086.86 965.639 1085.76 966.342 1084.82 966.318C1084.35 966.306 1083.99 966.11 1083.73 965.73C1083.48 965.34 1083.36 964.824 1083.37 964.185C1083.39 963.641 1083.6 963.075 1084.01 962.488C1084.43 961.901 1084.96 961.413 1085.61 961.024C1086.26 960.625 1086.82 960.431 1087.29 960.443C1087.55 960.449 1087.75 960.513 1087.9 960.634C1088.04 960.755 1088.11 960.923 1088.11 961.136C1088.08 962.138 1086.94 963.07 1084.69 963.93ZM1084.78 963.42C1085.5 963.15 1086.04 962.812 1086.43 962.406C1086.81 961.988 1087 961.679 1087.01 961.476C1087.01 961.359 1086.96 961.299 1086.84 961.296C1086.6 961.29 1086.23 961.504 1085.72 961.939C1085.22 962.364 1084.9 962.858 1084.78 963.42ZM1094.44 959.488C1094.95 959.512 1095.33 959.553 1095.57 959.613C1095.83 959.673 1095.95 959.772 1095.95 959.911C1095.95 959.975 1095.89 960.026 1095.77 960.066C1095.66 960.106 1095.33 960.177 1094.76 960.28C1094.2 960.373 1093.87 960.418 1093.78 960.416C1093.61 960.411 1093.52 960.281 1093.53 960.025C1093.54 959.801 1093.59 959.52 1093.68 959.181C1093.79 958.842 1093.92 958.52 1094.07 958.214C1094.24 957.909 1094.42 957.684 1094.6 957.54C1094.8 957.384 1095.15 957.233 1095.67 957.087C1096.19 956.929 1096.72 956.809 1097.28 956.727C1097.84 956.635 1098.3 956.593 1098.68 956.603C1098.92 956.609 1099.1 956.64 1099.2 956.696C1099.31 956.741 1099.44 956.98 1099.6 957.41C1099.76 957.841 1099.83 958.275 1099.82 958.712C1099.81 959.256 1099.66 959.717 1099.39 960.094C1099.12 960.471 1098.77 960.809 1098.32 961.107C1097.88 961.405 1097.2 961.82 1096.29 962.352C1094.07 963.651 1092.89 964.442 1092.74 964.727C1093.24 964.697 1093.93 964.613 1094.79 964.475C1095.67 964.326 1096.43 964.185 1097.06 964.052C1097.7 963.908 1098.02 963.836 1098.03 963.837C1098.12 963.839 1098.17 963.904 1098.17 964.032C1098.16 964.363 1098.01 964.738 1097.72 965.157C1097.43 965.566 1096.93 965.868 1096.21 966.063C1095.5 966.259 1094.58 966.342 1093.44 966.313C1093.1 966.304 1092.83 966.26 1092.62 966.18C1092.41 966.1 1092.25 965.861 1092.13 965.463C1092.01 965.066 1091.95 964.803 1091.96 964.675C1091.96 964.429 1092.09 964.118 1092.35 963.74C1092.61 963.363 1092.99 962.962 1093.48 962.537C1093.97 962.112 1094.54 961.726 1095.18 961.379L1096.87 960.462C1097.36 960.186 1097.68 960.013 1097.81 959.942C1097.94 959.87 1098.12 959.736 1098.35 959.539C1098.59 959.332 1098.76 959.144 1098.87 958.976C1098.99 958.809 1099.06 958.666 1099.06 958.549C1099.06 958.389 1098.99 958.27 1098.84 958.191C1098.71 958.113 1098.56 958.072 1098.4 958.068C1097.88 958.055 1097.23 958.177 1096.45 958.435C1095.68 958.693 1095.01 959.044 1094.44 959.488ZM1106.01 957.573C1106.26 957.697 1106.43 957.888 1106.53 958.147C1106.64 958.395 1106.68 958.753 1106.67 959.222C1106.64 960.353 1106.31 961.507 1105.67 962.686C1105.04 963.855 1104.29 964.79 1103.4 965.494C1102.52 966.186 1101.76 966.524 1101.1 966.508C1100.51 966.492 1100 966.218 1099.59 965.685C1099.19 965.152 1099 964.469 1099.02 963.638C1099.04 962.689 1099.39 961.673 1100.07 960.591C1100.75 959.499 1101.58 958.602 1102.56 957.902C1103.53 957.201 1104.38 956.86 1105.09 956.878C1105.67 956.892 1105.97 957.124 1106.01 957.573ZM1104.17 959.063L1104.46 958.494C1103.35 958.957 1102.35 959.812 1101.45 961.059C1100.57 962.295 1100.11 963.361 1100.09 964.257C1100.07 964.865 1100.28 965.174 1100.72 965.185C1101.23 965.198 1101.93 964.859 1102.81 964.166C1103.69 963.474 1104.42 962.66 1105 961.725C1105.59 960.78 1105.9 959.912 1105.92 959.123C1105.93 958.622 1105.76 958.367 1105.39 958.358C1105.05 958.349 1104.65 958.584 1104.17 959.063ZM1113.02 957.751C1113.27 957.875 1113.45 958.066 1113.55 958.325C1113.65 958.573 1113.69 958.931 1113.68 959.4C1113.65 960.531 1113.32 961.685 1112.68 962.864C1112.05 964.033 1111.3 964.968 1110.42 965.672C1109.53 966.364 1108.77 966.702 1108.12 966.686C1107.52 966.67 1107.02 966.396 1106.6 965.863C1106.2 965.33 1106.01 964.647 1106.03 963.816C1106.05 962.867 1106.41 961.851 1107.08 960.769C1107.76 959.677 1108.59 958.78 1109.57 958.08C1110.55 957.379 1111.39 957.038 1112.11 957.056C1112.68 957.07 1112.99 957.302 1113.02 957.751ZM1111.19 959.241L1111.47 958.672C1110.36 959.135 1109.36 959.99 1108.46 961.237C1107.58 962.473 1107.13 963.539 1107.1 964.435C1107.09 965.043 1107.3 965.352 1107.74 965.363C1108.25 965.376 1108.94 965.037 1109.83 964.344C1110.71 963.652 1111.44 962.838 1112.02 961.903C1112.61 960.958 1112.91 960.091 1112.93 959.301C1112.94 958.8 1112.77 958.545 1112.41 958.536C1112.07 958.527 1111.66 958.762 1111.19 959.241ZM1116.66 965.846L1116.77 965.993C1115.82 966.695 1115.13 967.04 1114.68 967.028C1114.25 967.017 1114.05 966.756 1114.06 966.244C1114.08 965.541 1114.59 964.481 1115.6 963.066C1116.61 961.652 1118.02 960.29 1119.83 958.98C1119.13 958.856 1118.49 958.786 1117.91 958.772C1116.73 958.742 1115.8 958.942 1115.11 959.373C1114.97 959.455 1114.9 959.495 1114.89 959.495C1114.83 959.494 1114.78 959.466 1114.71 959.411C1114.65 959.356 1114.62 959.291 1114.62 959.216C1114.62 959.142 1114.73 958.947 1114.94 958.632C1115.16 958.307 1115.36 958.024 1115.54 957.783C1115.73 957.532 1115.9 957.376 1116.06 957.316C1116.22 957.256 1116.63 957.208 1117.28 957.171C1117.94 957.124 1118.62 957.109 1119.3 957.126C1119.72 957.137 1120.1 957.163 1120.47 957.204C1120.84 957.235 1121.05 957.251 1121.11 957.252C1121.31 957.759 1121.4 958.199 1121.39 958.572C1121.39 958.689 1121.37 958.785 1121.34 958.859C1121.31 958.933 1121.22 959.037 1121.06 959.172C1120.06 959.989 1119.19 960.847 1118.43 961.746C1117.67 962.634 1117.11 963.425 1116.74 964.12C1116.38 964.815 1116.19 965.349 1116.18 965.722C1116.18 965.861 1116.23 965.931 1116.32 965.934C1116.39 965.935 1116.5 965.906 1116.66 965.846Z" fill="#1D1D1B"/>
<path d="M304.596 909.46C305.952 880.943 307.341 852.427 308.763 823.912L248.97 822.393C244.266 842.715 239.528 863.053 234.756 883.406C219.338 870.945 206.087 856.02 195.541 839.234C195.541 839.234 193.626 836.094 191.765 832.806C158.767 774.613 146.08 707.091 155.704 640.889C160.732 605.946 175.377 573.089 198.002 545.989C241.949 494.157 301.296 483.798 321.868 480.681C342.574 477.455 363.636 477.218 384.41 479.976C380.707 625.763 376.839 771.546 372.805 917.325C362.291 917.058 350.996 916.123 338.967 914.67C326.938 913.218 315.02 911.32 304.596 909.46ZM297.16 613.271L265.314 750.167L312.451 751.364L319.882 613.848L297.16 613.271Z" fill="#FD6601"/>
<path d="M523.71 482.267C547.794 482.878 564.625 493.543 574.204 514.261C581.914 532.974 585.287 553.19 584.07 573.393C583.861 581.614 583.245 590.173 582.17 599.12L576.521 646.839C574.405 668.756 569.432 690.301 561.73 710.929C555.137 727.114 547.914 738.597 540.166 745.281C548.138 804.414 556.093 863.53 564.032 922.629L500.113 920.607C492.782 866.376 485.451 812.129 478.12 757.864L458.488 757.366C452.897 811.269 447.274 865.171 441.617 919.072L380.985 917.183C397.984 771.368 414.983 625.553 431.982 479.738L523.71 482.267ZM525.599 539.451C519.468 537.5 513.233 535.894 506.924 534.639C497.09 532.711 487.109 531.623 477.09 531.388C474.03 557.668 471.002 583.966 468.007 610.281C464.551 640.34 461.146 670.367 457.791 700.362C469.795 702.81 491.323 705.252 506.493 692.973C513.873 687.028 521.885 675.865 525.054 613.923C526.447 592.42 526.883 567.403 525.698 539.453L525.599 539.451Z" fill="#FD6601"/>
<path d="M632.472 811.442C631.811 837.484 641.047 850.748 660.181 851.233C679.315 851.719 689.193 840.337 689.817 817.086C690.515 806.04 687.258 795.105 680.628 786.241C674.19 778.018 666.287 771.056 657.317 765.706C647.751 759.918 638.554 753.54 629.781 746.61C619.391 737.607 611.479 726.095 606.797 713.17C600.138 695.285 597.227 676.221 598.247 657.163C600.652 562.463 632.93 515.902 695.082 517.481C717.804 518.058 734.765 526.898 745.964 544C757.164 561.103 762.403 584.503 761.682 614.199C761.437 624.718 760.438 635.207 758.691 645.583C757.674 652.76 755.992 659.828 753.668 666.694L751.204 673.412L700.429 672.123C705.254 661.912 707.702 650.741 707.591 639.449C708.214 614.935 700.353 602.471 684.01 602.056C663.447 601.534 652.824 614.094 652.14 639.736C651.314 650.797 654.585 661.775 661.328 670.581C667.721 678.303 675.687 684.573 684.694 688.974C694.379 693.839 703.657 699.477 712.437 705.832C723.029 714.328 731.032 725.619 735.542 738.427C742.326 757.058 745.217 776.883 744.035 796.676C742.817 844.607 734.606 879.98 719.401 902.794C704.196 925.607 681.396 936.662 650.999 935.956C620.604 935.184 600.094 924.111 589.468 902.735C581.599 886.68 578.019 864.686 578.728 836.75C578.997 826.188 579.854 814.692 581.299 802.265L582.427 793.22L634.347 794.538L633.626 801.35C633.067 804.692 632.682 808.06 632.472 811.442Z" fill="#FD6601"/>
<path d="M885.497 935.679C862.205 936.617 838.536 937.345 814.491 937.865C791.213 938.271 768.423 938.423 746.121 938.322C761.895 806.702 777.67 675.082 793.444 543.461C839.171 553.553 883.61 568.781 925.916 588.855L920.066 638.563L831.323 636.309L823.164 708.245L896.461 710.106L886.623 793.167L813.326 791.306L806.209 853.646L894.952 855.899C891.785 882.443 888.633 909.036 885.497 935.679Z" fill="#FD6601"/>
<path d="M1073.89 650.247C1062.65 745.687 1051.39 841.159 1040.09 936.664L992.275 936.546L966.347 750.071C959.079 812.441 951.794 874.809 944.493 937.177L898.402 936.007L939.158 591.634C948.396 593.956 957.467 596.901 966.307 600.45C974.247 603.652 981.996 607.312 989.513 611.409L1013.57 771.562C1019.27 723.844 1024.95 676.143 1030.61 628.457C1038.24 631.276 1045.7 634.528 1052.95 638.198C1060.15 641.82 1067.14 645.843 1073.89 650.247Z" fill="#FD6601"/>
<path d="M1159.51 932.567C1160.54 913.448 1161.52 894.328 1162.56 875.259L1115.32 874.06L1099.59 933.838C1091.25 934.424 1082.61 934.902 1073.78 935.226C1063.8 935.571 1054.12 935.757 1044.75 935.785C1070.22 848.884 1095.58 761.995 1120.82 675.121C1136.43 680.972 1151.61 687.887 1166.27 695.819C1183.19 704.924 1199.38 715.337 1214.69 726.963L1213.2 930.939L1159.51 932.567ZM1153.04 725.796L1128.34 822.838L1165.41 823.78L1170.98 726.252L1153.04 725.796Z" fill="#FD6601"/>
<path d="M1326.98 914.983C1291.6 926.176 1254.64 931.601 1217.53 931.049C1228.64 870.506 1239.79 809.963 1250.96 749.422C1257 753.165 1263.33 757.414 1269.84 762.116C1276.35 766.818 1283.49 772.434 1289.39 777.57L1268.67 888.424L1353.83 884.653C1352.04 891.176 1348.85 897.234 1344.51 902.415C1339.73 907.92 1333.73 912.226 1326.98 914.983Z" fill="#FD6601"/>
<path d="M1116.04 1027.72C1114.12 1024.2 1109.99 1021.91 1103.64 1020.84C1100.01 1020.2 1096.68 1019.27 1093.64 1018.04C1090.6 1016.76 1088.73 1015.72 1088.04 1014.92C1087.35 1014.12 1087 1013.29 1087 1012.44C1087 1008.55 1087.93 1005.05 1089.8 1001.96C1091.67 998.813 1095.43 996.387 1101.08 994.68C1106.73 992.92 1112.87 992.04 1119.48 992.04C1122.25 992.04 1124.44 992.253 1126.04 992.68C1127.69 993.053 1128.79 993.48 1129.32 993.96C1129.91 994.387 1130.2 995.027 1130.2 995.88C1130.2 997.48 1129.96 998.84 1129.48 999.96C1129.05 1001.03 1128.52 1001.75 1127.88 1002.12C1127.29 1002.49 1126.15 1003 1124.44 1003.64C1122.84 1004.17 1121.64 1004.63 1120.84 1005C1120.09 1005.37 1118.84 1006.12 1117.08 1007.24C1116.33 1007.72 1115.8 1008.01 1115.48 1008.12C1115.21 1008.12 1115.08 1008.01 1115.08 1007.8C1115.08 1007.32 1115.51 1006.68 1116.36 1005.88C1117.21 1005.03 1118.39 1004.2 1119.88 1003.4C1121.32 1002.65 1122.04 1002.15 1122.04 1001.88C1122.04 1001.61 1121.05 1001.48 1119.08 1001.48C1111.99 1001.48 1105.88 1002.41 1100.76 1004.28C1095.64 1006.15 1093.08 1008.2 1093.08 1010.44C1093.08 1010.87 1093.21 1011.29 1093.48 1011.72C1093.8 1012.09 1094.15 1012.33 1094.52 1012.44L1103.48 1015.08C1106.47 1015.93 1109.16 1016.92 1111.56 1018.04C1113.96 1019.16 1115.85 1020.28 1117.24 1021.4C1118.63 1022.52 1119.61 1023.64 1120.2 1024.76C1120.79 1025.83 1121.08 1026.97 1121.08 1028.2C1121.08 1030.49 1120.15 1032.92 1118.28 1035.48C1116.47 1038.04 1112.84 1040.01 1107.4 1041.4C1102.01 1042.84 1096.47 1043.56 1090.76 1043.56C1086.07 1043.56 1082.39 1043.11 1079.72 1042.2C1077.11 1041.29 1075.8 1040.01 1075.8 1038.36C1075.8 1036.76 1076.55 1035.08 1078.04 1033.32C1079.59 1031.56 1081.37 1030.68 1083.4 1030.68C1084.73 1030.68 1085.4 1030.81 1085.4 1031.08C1085.4 1031.19 1085.08 1031.35 1084.44 1031.56C1083.53 1031.93 1082.95 1032.2 1082.68 1032.36C1082.41 1032.47 1082.28 1032.65 1082.28 1032.92C1082.28 1033.45 1084.6 1033.72 1089.24 1033.72C1095.27 1033.72 1099.72 1033.53 1102.6 1033.16C1105.48 1032.79 1107.99 1032.15 1110.12 1031.24C1112.31 1030.33 1114.28 1029.16 1116.04 1027.72ZM1144.8 1009.16C1144 1009.16 1143.36 1008.92 1142.88 1008.44C1142.4 1007.91 1142.16 1007.27 1142.16 1006.52C1142.16 1005.35 1142.72 1004.09 1143.84 1002.76C1144.96 1001.37 1146.08 1000.68 1147.2 1000.68C1148 1000.68 1148.64 1000.95 1149.12 1001.48C1149.65 1001.96 1149.92 1002.6 1149.92 1003.4C1149.92 1004.57 1149.39 1005.83 1148.32 1007.16C1147.31 1008.49 1146.13 1009.16 1144.8 1009.16ZM1147.52 1026.68V1029.56C1142.45 1036.12 1138.16 1039.4 1134.64 1039.4C1132.67 1039.4 1131.15 1038.28 1130.08 1036.04C1129.07 1033.8 1128.56 1031.56 1128.56 1029.32C1128.56 1025.69 1130.05 1021.91 1133.04 1017.96C1136.08 1014.01 1138.85 1012.04 1141.36 1012.04C1142.96 1012.04 1143.76 1012.65 1143.76 1013.88C1143.76 1014.31 1143.36 1015.37 1142.56 1017.08C1141.76 1018.79 1140.16 1020.84 1137.76 1023.24C1136 1025 1134.93 1026.17 1134.56 1026.76C1134.19 1027.35 1134 1028.07 1134 1028.92C1134 1029.88 1134.35 1030.71 1135.04 1031.4C1135.73 1032.04 1136.64 1032.36 1137.76 1032.36C1138.99 1032.36 1140.35 1031.91 1141.84 1031C1143.39 1030.04 1145.28 1028.6 1147.52 1026.68ZM1165.8 1021.08C1162.39 1022.89 1158.2 1027.13 1153.24 1033.8C1151.75 1035.67 1150.79 1036.79 1150.36 1037.16C1149.99 1037.53 1149.56 1037.72 1149.08 1037.72C1148.12 1037.72 1147.32 1036.84 1146.68 1035.08C1146.04 1033.32 1145.72 1031.35 1145.72 1029.16C1145.72 1027.72 1145.88 1026.55 1146.2 1025.64C1146.57 1024.68 1147.56 1023.03 1149.16 1020.68C1150.76 1018.33 1152.09 1016.68 1153.16 1015.72C1154.28 1014.71 1155.51 1014.2 1156.84 1014.2C1157.59 1014.2 1158.17 1014.39 1158.6 1014.76C1159.08 1015.08 1159.32 1015.48 1159.32 1015.96C1159.32 1016.44 1159.11 1016.92 1158.68 1017.4L1157.32 1018.92C1153.21 1023.51 1151.16 1026.47 1151.16 1027.8C1151.16 1028.55 1151.4 1028.92 1151.88 1028.92C1152.25 1028.92 1152.87 1028.41 1153.72 1027.4C1158.84 1021.37 1162.95 1017.27 1166.04 1015.08C1169.19 1012.89 1171.27 1011.8 1172.28 1011.8C1172.71 1011.8 1173.11 1012.44 1173.48 1013.72C1173.91 1015 1174.12 1016.09 1174.12 1017C1174.12 1017.53 1173.56 1018.41 1172.44 1019.64C1170.31 1021.93 1168.63 1024.04 1167.4 1025.96C1166.17 1027.88 1165.56 1029.32 1165.56 1030.28C1165.56 1031.4 1166.01 1031.96 1166.92 1031.96C1168.2 1031.96 1171.08 1030.15 1175.56 1026.52V1029.24C1172.57 1032.33 1169.93 1034.84 1167.64 1036.76C1165.35 1038.63 1163.48 1039.56 1162.04 1039.56C1161.03 1039.56 1160.25 1039.16 1159.72 1038.36C1159.24 1037.56 1159 1036.55 1159 1035.32C1159 1034.09 1159.48 1032.47 1160.44 1030.44C1161.45 1028.36 1163.24 1025.24 1165.8 1021.08ZM1199.58 1026.76V1029.4C1197.5 1031.53 1194.89 1033.93 1191.74 1036.6C1188.59 1039.21 1185.85 1040.52 1183.5 1040.52C1181.15 1040.52 1179.23 1039.24 1177.74 1036.68C1176.3 1034.12 1175.58 1031.4 1175.58 1028.52C1175.58 1026.92 1175.85 1025.56 1176.38 1024.44C1176.91 1023.32 1178.43 1021.45 1180.94 1018.84C1183.5 1016.23 1186.03 1014.15 1188.54 1012.6C1191.05 1011.05 1192.89 1010.28 1194.06 1010.28C1195.02 1010.28 1195.79 1010.57 1196.38 1011.16C1197.02 1011.75 1197.34 1012.52 1197.34 1013.48C1197.34 1015.13 1196.46 1017.13 1194.7 1019.48C1192.99 1021.83 1191.66 1023 1190.7 1023C1190.01 1023 1189.66 1022.63 1189.66 1021.88L1189.74 1021C1189.74 1020.47 1189.61 1020.2 1189.34 1020.2C1189.07 1020.2 1187.85 1021 1185.66 1022.6C1183.47 1024.15 1182.01 1025.37 1181.26 1026.28C1180.51 1027.19 1180.14 1028.09 1180.14 1029C1180.14 1030.55 1180.59 1031.8 1181.5 1032.76C1182.46 1033.67 1183.74 1034.12 1185.34 1034.12C1187.1 1034.12 1189.13 1033.51 1191.42 1032.28C1193.71 1031.05 1196.43 1029.21 1199.58 1026.76ZM1204.46 1028.12V1029.08C1204.46 1030.63 1204.8 1031.83 1205.5 1032.68C1206.24 1033.53 1207.26 1033.96 1208.54 1033.96C1210.51 1033.96 1212.48 1033.35 1214.46 1032.12C1216.48 1030.84 1218.86 1029.03 1221.58 1026.68V1029.08C1215.5 1036.39 1210.11 1040.04 1205.42 1040.04C1203.07 1040.04 1201.23 1039.11 1199.9 1037.24C1198.56 1035.32 1197.9 1032.76 1197.9 1029.56C1197.9 1026.84 1198.88 1023.99 1200.86 1021C1202.88 1018.01 1205.5 1015.51 1208.7 1013.48C1211.9 1011.4 1214.67 1010.36 1217.02 1010.36C1218.3 1010.36 1219.31 1010.65 1220.06 1011.24C1220.8 1011.83 1221.18 1012.65 1221.18 1013.72C1221.18 1018.73 1215.6 1023.53 1204.46 1028.12ZM1204.86 1025.56C1208.38 1024.12 1211.07 1022.36 1212.94 1020.28C1214.8 1018.15 1215.74 1016.57 1215.74 1015.56C1215.74 1014.97 1215.44 1014.68 1214.86 1014.68C1213.68 1014.68 1211.84 1015.8 1209.34 1018.04C1206.88 1020.23 1205.39 1022.73 1204.86 1025.56ZM1252.63 1004.68C1255.19 1004.73 1257.08 1004.89 1258.31 1005.16C1259.59 1005.43 1260.23 1005.91 1260.23 1006.6C1260.23 1006.92 1259.94 1007.19 1259.35 1007.4C1258.82 1007.61 1257.14 1008.01 1254.31 1008.6C1251.54 1009.13 1249.91 1009.4 1249.43 1009.4C1248.58 1009.4 1248.15 1008.76 1248.15 1007.48C1248.15 1006.36 1248.36 1004.95 1248.79 1003.24C1249.27 1001.53 1249.88 999.907 1250.63 998.36C1251.43 996.813 1252.28 995.667 1253.19 994.92C1254.15 994.12 1255.91 993.32 1258.47 992.52C1261.03 991.667 1263.7 991 1266.47 990.52C1269.24 989.987 1271.56 989.72 1273.43 989.72C1274.66 989.72 1275.54 989.853 1276.07 990.12C1276.6 990.333 1277.3 991.507 1278.15 993.64C1279 995.773 1279.43 997.933 1279.43 1000.12C1279.43 1002.84 1278.76 1005.16 1277.43 1007.08C1276.15 1009 1274.42 1010.73 1272.23 1012.28C1270.04 1013.83 1266.71 1015.99 1262.23 1018.76C1251.3 1025.53 1245.48 1029.64 1244.79 1031.08C1247.3 1030.87 1250.71 1030.36 1255.03 1029.56C1259.4 1028.71 1263.16 1027.91 1266.31 1027.16C1269.46 1026.36 1271.06 1025.96 1271.11 1025.96C1271.59 1025.96 1271.83 1026.28 1271.83 1026.92C1271.83 1028.57 1271.14 1030.47 1269.75 1032.6C1268.36 1034.68 1265.88 1036.25 1262.31 1037.32C1258.79 1038.39 1254.18 1038.92 1248.47 1038.92C1246.82 1038.92 1245.46 1038.73 1244.39 1038.36C1243.32 1037.99 1242.47 1036.81 1241.83 1034.84C1241.19 1032.87 1240.87 1031.56 1240.87 1030.92C1240.87 1029.69 1241.48 1028.12 1242.71 1026.2C1243.99 1024.28 1245.83 1022.23 1248.23 1020.04C1250.63 1017.85 1253.4 1015.85 1256.55 1014.04L1264.87 1009.24C1267.32 1007.8 1268.87 1006.89 1269.51 1006.52C1270.15 1006.15 1271.03 1005.45 1272.15 1004.44C1273.32 1003.37 1274.18 1002.41 1274.71 1001.56C1275.3 1000.71 1275.59 999.987 1275.59 999.4C1275.59 998.6 1275.22 998.013 1274.47 997.64C1273.78 997.267 1273.03 997.08 1272.23 997.08C1269.62 997.08 1266.39 997.773 1262.55 999.16C1258.71 1000.55 1255.4 1002.39 1252.63 1004.68ZM1310.19 993.64C1311.47 994.227 1312.37 995.16 1312.91 996.44C1313.44 997.667 1313.71 999.453 1313.71 1001.8C1313.71 1007.45 1312.19 1013.27 1309.15 1019.24C1306.16 1025.16 1302.51 1029.93 1298.19 1033.56C1293.87 1037.13 1290.08 1038.92 1286.83 1038.92C1283.84 1038.92 1281.28 1037.61 1279.15 1035C1277.07 1032.39 1276.03 1029 1276.03 1024.84C1276.03 1020.09 1277.65 1014.97 1280.91 1009.48C1284.16 1003.93 1288.19 999.347 1292.99 995.72C1297.79 992.093 1301.97 990.28 1305.55 990.28C1308.43 990.28 1309.97 991.4 1310.19 993.64ZM1301.23 1001.32L1302.59 998.44C1297.09 1000.89 1292.19 1005.29 1287.87 1011.64C1283.6 1017.93 1281.47 1023.32 1281.47 1027.8C1281.47 1030.84 1282.56 1032.36 1284.75 1032.36C1287.31 1032.36 1290.75 1030.57 1295.07 1027C1299.39 1023.43 1302.93 1019.27 1305.71 1014.52C1308.53 1009.72 1309.95 1005.35 1309.95 1001.4C1309.95 998.893 1309.04 997.64 1307.23 997.64C1305.52 997.64 1303.52 998.867 1301.23 1001.32ZM1345.27 993.64C1346.55 994.227 1347.45 995.16 1347.99 996.44C1348.52 997.667 1348.79 999.453 1348.79 1001.8C1348.79 1007.45 1347.27 1013.27 1344.23 1019.24C1341.24 1025.16 1337.59 1029.93 1333.27 1033.56C1328.95 1037.13 1325.16 1038.92 1321.91 1038.92C1318.92 1038.92 1316.36 1037.61 1314.23 1035C1312.15 1032.39 1311.11 1029 1311.11 1024.84C1311.11 1020.09 1312.73 1014.97 1315.99 1009.48C1319.24 1003.93 1323.27 999.347 1328.07 995.72C1332.87 992.093 1337.05 990.28 1340.63 990.28C1343.51 990.28 1345.05 991.4 1345.27 993.64ZM1336.31 1001.32L1337.67 998.44C1332.17 1000.89 1327.27 1005.29 1322.95 1011.64C1318.68 1017.93 1316.55 1023.32 1316.55 1027.8C1316.55 1030.84 1317.64 1032.36 1319.83 1032.36C1322.39 1032.36 1325.83 1030.57 1330.15 1027C1334.47 1023.43 1338.01 1019.27 1340.79 1014.52C1343.61 1009.72 1345.03 1005.35 1345.03 1001.4C1345.03 998.893 1344.12 997.64 1342.31 997.64C1340.6 997.64 1338.6 998.867 1336.31 1001.32ZM1370.02 1013.08C1371.57 1015.96 1372.61 1018.09 1373.14 1019.48C1373.68 1020.81 1373.94 1022.28 1373.94 1023.88C1373.94 1027.72 1372.48 1031.19 1369.54 1034.28C1366.61 1037.37 1363.01 1038.92 1358.74 1038.92C1356.18 1038.92 1354.02 1038.36 1352.26 1037.24C1350.56 1036.12 1349.7 1034.68 1349.7 1032.92C1349.7 1031.05 1350.8 1028.6 1352.98 1025.56C1355.17 1022.47 1358.53 1018.6 1363.06 1013.96C1359.22 1009.48 1357.3 1005.4 1357.3 1001.72C1357.3 997.667 1358.64 994.493 1361.3 992.2C1363.97 989.907 1367.49 988.44 1371.86 987.8C1376.24 987.107 1380.05 986.76 1383.3 986.76C1385.86 986.76 1387.68 986.893 1388.74 987.16C1389.81 987.427 1390.34 987.96 1390.34 988.76C1390.34 989.4 1389.86 990.573 1388.9 992.28C1387.94 993.987 1387.2 995.053 1386.66 995.48C1386.13 995.853 1385.2 996.04 1383.86 996.04C1384.34 996.84 1384.58 997.48 1384.58 997.96C1384.58 998.547 1384.24 999.213 1383.54 999.96C1382.9 1000.71 1381.52 1002.04 1379.38 1003.96C1375.54 1007.43 1372.42 1010.47 1370.02 1013.08ZM1367.7 1009.72C1374.64 1003.64 1378.8 999.96 1380.18 998.68C1381.57 997.4 1382.26 996.653 1382.26 996.44C1382.26 995.693 1380.56 995.32 1377.14 995.32C1372.93 995.32 1369.65 995.933 1367.3 997.16C1365.01 998.333 1363.86 1000.04 1363.86 1002.28C1363.86 1004.2 1365.14 1006.68 1367.7 1009.72ZM1365.62 1017.48C1362.64 1020.57 1360.05 1023.56 1357.86 1026.44C1355.68 1029.32 1354.58 1031.19 1354.58 1032.04C1354.58 1033.75 1356.05 1034.6 1358.98 1034.6C1361.28 1034.6 1363.33 1033.64 1365.14 1031.72C1367.01 1029.8 1367.94 1027.48 1367.94 1024.76C1367.94 1022.36 1367.17 1019.93 1365.62 1017.48Z" fill="white"/>
</g>
<defs>
<clipPath id="clip0_45_85">
<rect width="1500" height="1500" fill="white"/>
</clipPath>
</defs>
</svg>
